Coordinates
version=1
nRows=65
nColumns=12
inDegrees=yes

Units are S.I. units (second, meters, Newtons, ...)
Angles are in degrees

endheader
time	SC_y	SC_z	SC_x	AC_y	AC_z	AC_x	GH_y	GH_z	GH_yy	EL_x	PS_y
       0.0              -24.12           6.34          65.95          34.32          0.333         -11.61         -167.2          9.448          74.24          7.678          134.2
   0.03497              -24.12          6.341          65.95          34.32         0.3327         -11.61         -167.2          9.448          74.25          7.687          134.2
   0.06993              -24.12          6.342          65.95          34.32         0.3323         -11.61         -167.1          9.449          74.26          7.696          134.2
    0.1049              -24.12          6.343          65.94          34.32          0.332         -11.61         -167.1           9.45          74.27          7.706          134.1
    0.1399              -24.12          6.344          65.94          34.32         0.3316          -11.6         -167.1           9.45          74.28          7.717          134.1
    0.1748              -24.12          6.345          65.93          34.32         0.3312          -11.6         -167.1          9.451          74.29          7.728          134.1
    0.2098              -24.12          6.346          65.93          34.31         0.3308          -11.6         -167.1          9.452           74.3           7.74          134.1
    0.2448              -24.12          6.347          65.92          34.31         0.3303          -11.6         -167.1          9.452          74.32          7.752          134.1
    0.2797              -24.12          6.349          65.91          34.31         0.3298          -11.6         -167.1          9.453          74.33          7.766          134.0
    0.3147              -24.12           6.35          65.91          34.31         0.3293          -11.6         -167.0          9.454          74.34           7.78          134.0
    0.3497              -24.12          6.352           65.9          34.31         0.3287          -11.6         -167.0          9.455          74.36          7.796          134.0
    0.3846              -24.12          6.353          65.89          34.31         0.3281          -11.6         -167.0          9.456          74.37          7.813          134.0
    0.4196              -24.12          6.355          65.88          34.31         0.3274          -11.6         -167.0          9.457          74.39          7.831          133.9
    0.4546              -24.12          6.357          65.87          34.31         0.3267          -11.6         -166.9          9.458          74.41          7.851          133.9
    0.4895              -24.12          6.359          65.86          34.31          0.326          -11.6         -166.9          9.459          74.43          7.872          133.9
    0.5245              -24.12          6.361          65.85          34.31         0.3251          -11.6         -166.9          9.461          74.45          7.895          133.8
    0.5595              -24.12          6.363          65.84          34.31         0.3242          -11.6         -166.9          9.462          74.48           7.92          133.8
    0.5944              -24.12          6.366          65.83          34.31         0.3232          -11.6         -166.8          9.464           74.5          7.947          133.7
    0.6294              -24.12          6.369          65.81           34.3         0.3222          -11.6         -166.8          9.466          74.53          7.977          133.7
    0.6644              -24.12          6.372           65.8           34.3          0.321          -11.6         -166.7          9.468          74.56           8.01          133.6
    0.6993              -24.12          6.375          65.78           34.3         0.3197          -11.6         -166.7           9.47           74.6          8.045          133.6
    0.7343              -24.12          6.379          65.76           34.3         0.3182          -11.6         -166.6          9.472          74.63          8.085          133.5
    0.7693              -24.12          6.383          65.74           34.3         0.3167          -11.6         -166.6          9.475          74.68          8.128          133.4
    0.8042              -24.13          6.388          65.72           34.3         0.3149          -11.6         -166.5          9.477          74.72          8.177          133.3
    0.8392              -24.13          6.393           65.7          34.29          0.313         -11.59         -166.5          9.481          74.77           8.23          133.3
    0.8742              -24.13          6.398          65.67          34.29         0.3108         -11.59         -166.4          9.484          74.83           8.29          133.1
    0.9091              -24.13          6.405          65.64          34.29         0.3084         -11.59         -166.3          9.488           74.9          8.357          133.0
    0.9441              -24.13          6.412           65.6          34.29         0.3057         -11.59         -166.2          9.492          74.97          8.432          132.9
    0.9791              -24.13           6.42          65.56          34.28         0.3026         -11.59         -166.1          9.498          75.05          8.518          132.8
     1.014              -24.13          6.429          65.52          34.28         0.2991         -11.59         -166.0          9.503          75.14          8.614          132.6
     1.049              -24.14          6.439          65.47          34.27         0.2951         -11.58         -165.8           9.51          75.25          8.725          132.4
     1.084              -24.14          6.451          65.41          34.27         0.2905         -11.58         -165.7          9.517          75.37          8.851          132.2
     1.119              -24.14          6.465          65.34          34.26         0.2852         -11.58         -165.5          9.526          75.51          8.997          131.9
     1.154              -24.15          6.481          65.26          34.26          0.279         -11.58         -165.3          9.536          75.67          9.167          131.7
     1.189              -24.15            6.5          65.17          34.25         0.2718         -11.57         -165.0          9.548          75.86          9.366          131.3
     1.224              -24.15          6.522          65.06          34.24         0.2634         -11.57         -164.7          9.561          76.09          9.601          130.9
     1.259              -24.16          6.549          64.93          34.23         0.2533         -11.56         -164.4          9.578          76.36          9.879          130.5
     1.294              -24.17           6.58          64.78          34.21         0.2412         -11.55         -163.9          9.598          76.68          10.21          129.9
     1.329              -24.17          6.618          64.59           34.2         0.2265         -11.55         -163.4          9.622          77.06          10.62          129.2
     1.364              -24.18          6.665          64.36          34.18         0.2087         -11.54         -162.8          9.651          77.54          11.11          128.4
     1.399               -24.2          6.723          64.08          34.15         0.1866         -11.52         -162.0          9.687          78.12          11.72          127.3
     1.434              -24.21          6.794          63.72          34.12         0.1591         -11.51         -161.0          9.731          78.85          12.48          126.0
     1.469              -24.23          6.885          63.28          34.08         0.1245         -11.49         -159.8          9.788          79.77          13.44          124.4
     1.504              -24.26            7.0          62.72          34.03        0.08042         -11.46         -158.3           9.86          80.93          14.65          122.4
     1.539              -24.29          7.147          61.99          33.96        0.02405         -11.43         -156.3          9.952          82.42          16.21          119.7
     1.574              -24.33          7.336          61.07          33.88        -0.0483         -11.39         -153.7          10.07          84.34           18.2          116.3
     1.608              -24.38          7.577          59.88          33.78        -0.1407         -11.34         -150.5          10.22          86.79          20.76          112.0
     1.643              -24.44           7.88          58.39          33.64        -0.2569         -11.27         -146.4          10.41          89.86          23.96          106.6
     1.678              -24.52           8.25          56.57          33.48        -0.3985         -11.19         -141.4          10.64          93.61          27.87          99.92
     1.713              -24.61          8.679          54.47          33.29        -0.5626          -11.1         -135.6          10.91          97.96           32.4          92.23
     1.748              -24.71          9.143          52.19          33.09        -0.7403          -11.0         -129.4           11.2          102.7          37.31           83.9
     1.783              -24.81          9.606          49.91          32.89        -0.9181          -10.9         -123.1          11.49          107.4          42.22          75.57
     1.818               -24.9          10.03          47.81           32.7         -1.082         -10.81         -117.3          11.76          111.7          46.75          67.88
     1.853              -24.97           10.4          45.99          32.54         -1.224         -10.73         -112.4          11.99          115.5          50.66          61.25
     1.888              -25.04          10.71           44.5           32.4          -1.34         -10.67         -108.3          12.18          118.5          53.87           55.8
     1.923              -25.09          10.95          43.32           32.3         -1.432         -10.61         -105.0          12.33          121.0          56.42          51.47
     1.958              -25.13          11.14          42.39          32.21         -1.505         -10.57         -102.5          12.44          122.9          58.42          48.09
     1.993              -25.16          11.29          41.67          32.15         -1.561         -10.54         -100.5          12.54          124.4          59.97          45.44
     2.028              -25.18           11.4           41.1           32.1         -1.605         -10.52         -98.93          12.61          125.6          61.19          43.38
     2.063               -25.2          11.49          40.66          32.06          -1.64          -10.5         -97.71          12.66          126.5          62.14          41.76
     2.098              -25.22          11.56          40.31          32.03         -1.667         -10.48         -96.74          12.71          127.2           62.9          40.47
     2.133              -25.23          11.62          40.02           32.0         -1.689         -10.47         -95.96          12.75          127.8          63.51          39.44
     2.168              -25.24          11.67          39.79          31.98         -1.707         -10.46         -95.33          12.77          128.3          64.01           38.6
     2.203              -25.25           11.7          39.61          31.97         -1.722         -10.45         -94.82           12.8          128.7          64.41          37.91
     2.238              -25.26          11.74          39.45          31.95         -1.734         -10.44         -94.39          12.82          129.0          64.74          37.35
